<svg width="22" height="19" viewBox="0 0 22 19" fill="none" xmlns="http://www.w3.org/2000/svg">
<path d="M15.594 0.750017C16.918 0.750017 18.162 1.26602 19.098 2.20102C20.0262 3.13093 20.5475 4.39113 20.5475 5.70502C20.5475 7.0189 20.0262 8.2791 19.098 9.20902L10.8 17.508L2.50101 9.20902C1.57312 8.27914 1.052 7.01915 1.052 5.70552C1.052 4.39188 1.57312 3.13189 2.50101 2.20202C2.96004 1.74032 3.50609 1.37425 4.10756 1.12501C4.70902 0.875777 5.35395 0.748319 6.00501 0.750017C7.32901 0.750017 8.57301 1.26602 9.50901 2.20102L10.269 2.96102L10.8 3.49202L11.33 2.96102L12.09 2.20102C12.5492 1.73963 13.0953 1.37384 13.6968 1.12478C14.2982 0.87573 14.943 0.748353 15.594 0.750017Z" stroke="#111111" stroke-width="1.5"/>
</svg>
